%TF.GenerationSoftware,KiCad,Pcbnew,9.0.6+1*%
%TF.CreationDate,2025-12-13T21:20:49-08:00*%
%TF.ProjectId,6502,36353032-2e6b-4696-9361-645f70636258,rev?*%
%TF.SameCoordinates,Original*%
%TF.FileFunction,Soldermask,Bot*%
%TF.FilePolarity,Negative*%
%FSLAX46Y46*%
G04 Gerber Fmt 4.6, Leading zero omitted, Abs format (unit mm)*
G04 Created by KiCad (PCBNEW 9.0.6+1) date 2025-12-13 21:20:49*
%MOMM*%
%LPD*%
G01*
G04 APERTURE LIST*
G04 Aperture macros list*
%AMRoundRect*
0 Rectangle with rounded corners*
0 $1 Rounding radius*
0 $2 $3 $4 $5 $6 $7 $8 $9 X,Y pos of 4 corners*
0 Add a 4 corners polygon primitive as box body*
4,1,4,$2,$3,$4,$5,$6,$7,$8,$9,$2,$3,0*
0 Add four circle primitives for the rounded corners*
1,1,$1+$1,$2,$3*
1,1,$1+$1,$4,$5*
1,1,$1+$1,$6,$7*
1,1,$1+$1,$8,$9*
0 Add four rect primitives between the rounded corners*
20,1,$1+$1,$2,$3,$4,$5,0*
20,1,$1+$1,$4,$5,$6,$7,0*
20,1,$1+$1,$6,$7,$8,$9,0*
20,1,$1+$1,$8,$9,$2,$3,0*%
G04 Aperture macros list end*
%ADD10RoundRect,0.250000X0.550000X-0.550000X0.550000X0.550000X-0.550000X0.550000X-0.550000X-0.550000X0*%
%ADD11C,1.600000*%
%ADD12C,1.400000*%
%ADD13R,1.700000X1.700000*%
%ADD14C,1.700000*%
%ADD15RoundRect,0.250000X-0.550000X-0.550000X0.550000X-0.550000X0.550000X0.550000X-0.550000X0.550000X0*%
%ADD16R,2.000000X1.440000*%
%ADD17O,2.000000X1.440000*%
%ADD18C,2.000000*%
%ADD19RoundRect,0.250000X0.325000X0.650000X-0.325000X0.650000X-0.325000X-0.650000X0.325000X-0.650000X0*%
%ADD20C,1.500000*%
%ADD21RoundRect,0.250000X0.650000X-0.325000X0.650000X0.325000X-0.650000X0.325000X-0.650000X-0.325000X0*%
%ADD22RoundRect,0.250000X-0.325000X-0.650000X0.325000X-0.650000X0.325000X0.650000X-0.325000X0.650000X0*%
G04 APERTURE END LIST*
D10*
%TO.C,REF\u002A\u002A*%
X66040000Y-91440000D03*
D11*
X68580000Y-91440000D03*
X71120000Y-91440000D03*
X73660000Y-91440000D03*
X76200000Y-91440000D03*
X78740000Y-91440000D03*
X81280000Y-91440000D03*
X81280000Y-83820000D03*
X78740000Y-83820000D03*
X76200000Y-83820000D03*
X73660000Y-83820000D03*
X71120000Y-83820000D03*
X68580000Y-83820000D03*
X66040000Y-83820000D03*
%TD*%
D10*
%TO.C,REF\u002A\u002A*%
X134620000Y-91440000D03*
D11*
X137160000Y-91440000D03*
X139700000Y-91440000D03*
X142240000Y-91440000D03*
X144780000Y-91440000D03*
X147320000Y-91440000D03*
X149860000Y-91440000D03*
X149860000Y-83820000D03*
X147320000Y-83820000D03*
X144780000Y-83820000D03*
X142240000Y-83820000D03*
X139700000Y-83820000D03*
X137160000Y-83820000D03*
X134620000Y-83820000D03*
%TD*%
D12*
%TO.C,TP2*%
X62230000Y-157480000D03*
X64770000Y-157480000D03*
%TD*%
D10*
%TO.C,REF\u002A\u002A*%
X111760000Y-91440000D03*
D11*
X114300000Y-91440000D03*
X116840000Y-91440000D03*
X119380000Y-91440000D03*
X121920000Y-91440000D03*
X124460000Y-91440000D03*
X127000000Y-91440000D03*
X127000000Y-83820000D03*
X124460000Y-83820000D03*
X121920000Y-83820000D03*
X119380000Y-83820000D03*
X116840000Y-83820000D03*
X114300000Y-83820000D03*
X111760000Y-83820000D03*
%TD*%
D10*
%TO.C,REF\u002A\u002A*%
X88900000Y-91440000D03*
D11*
X91440000Y-91440000D03*
X93980000Y-91440000D03*
X96520000Y-91440000D03*
X99060000Y-91440000D03*
X101600000Y-91440000D03*
X104140000Y-91440000D03*
X104140000Y-83820000D03*
X101600000Y-83820000D03*
X99060000Y-83820000D03*
X96520000Y-83820000D03*
X93980000Y-83820000D03*
X91440000Y-83820000D03*
X88900000Y-83820000D03*
%TD*%
D13*
%TO.C,JP4*%
X92075000Y-100965000D03*
D14*
X94615000Y-100965000D03*
%TD*%
D15*
%TO.C,U3*%
X108585000Y-123190000D03*
D11*
X108585000Y-125730000D03*
X108585000Y-128270000D03*
X108585000Y-130810000D03*
X108585000Y-133350000D03*
X108585000Y-135890000D03*
X108585000Y-138430000D03*
X108585000Y-140970000D03*
X108585000Y-143510000D03*
X108585000Y-146050000D03*
X108585000Y-148590000D03*
X108585000Y-151130000D03*
X108585000Y-153670000D03*
X108585000Y-156210000D03*
X123825000Y-156210000D03*
X123825000Y-153670000D03*
X123825000Y-151130000D03*
X123825000Y-148590000D03*
X123825000Y-146050000D03*
X123825000Y-143510000D03*
X123825000Y-140970000D03*
X123825000Y-138430000D03*
X123825000Y-135890000D03*
X123825000Y-133350000D03*
X123825000Y-130810000D03*
X123825000Y-128270000D03*
X123825000Y-125730000D03*
X123825000Y-123190000D03*
%TD*%
D12*
%TO.C,TP1*%
X151130000Y-101600000D03*
X148590000Y-101600000D03*
%TD*%
D16*
%TO.C,U2*%
X132715000Y-123190000D03*
D17*
X132715000Y-125730000D03*
X132715000Y-128270000D03*
X132715000Y-130810000D03*
X132715000Y-133350000D03*
X132715000Y-135890000D03*
X132715000Y-138430000D03*
X132715000Y-140970000D03*
X132715000Y-143510000D03*
X132715000Y-146050000D03*
X132715000Y-148590000D03*
X132715000Y-151130000D03*
X132715000Y-153670000D03*
X132715000Y-156210000D03*
X147955000Y-156210000D03*
X147955000Y-153670000D03*
X147955000Y-151130000D03*
X147955000Y-148590000D03*
X147955000Y-146050000D03*
X147955000Y-143510000D03*
X147955000Y-140970000D03*
X147955000Y-138430000D03*
X147955000Y-135890000D03*
X147955000Y-133350000D03*
X147955000Y-130810000D03*
X147955000Y-128270000D03*
X147955000Y-125730000D03*
X147955000Y-123190000D03*
%TD*%
D15*
%TO.C,U1*%
X73030000Y-108585000D03*
D11*
X73030000Y-111125000D03*
X73030000Y-113665000D03*
X73030000Y-116205000D03*
X73030000Y-118745000D03*
X73030000Y-121285000D03*
X73030000Y-123825000D03*
X73030000Y-126365000D03*
X73030000Y-128905000D03*
X73030000Y-131445000D03*
X73030000Y-133985000D03*
X73030000Y-136525000D03*
X73030000Y-139065000D03*
X73030000Y-141605000D03*
X73030000Y-144145000D03*
X73030000Y-146685000D03*
X73030000Y-149225000D03*
X73030000Y-151765000D03*
X73030000Y-154305000D03*
X73030000Y-156845000D03*
X88270000Y-156845000D03*
X88270000Y-154305000D03*
X88270000Y-151765000D03*
X88270000Y-149225000D03*
X88270000Y-146685000D03*
X88270000Y-144145000D03*
X88270000Y-141605000D03*
X88270000Y-139065000D03*
X88270000Y-136525000D03*
X88270000Y-133985000D03*
X88270000Y-131445000D03*
X88270000Y-128905000D03*
X88270000Y-126365000D03*
X88270000Y-123825000D03*
X88270000Y-121285000D03*
X88270000Y-118745000D03*
X88270000Y-116205000D03*
X88270000Y-113665000D03*
X88270000Y-111125000D03*
X88270000Y-108585000D03*
%TD*%
D10*
%TO.C,Y1*%
X102235000Y-113665000D03*
D11*
X104775000Y-113665000D03*
X107315000Y-113665000D03*
X109855000Y-113665000D03*
X112395000Y-113665000D03*
X114935000Y-113665000D03*
X117475000Y-113665000D03*
X117475000Y-106045000D03*
X114935000Y-106045000D03*
X112395000Y-106045000D03*
X109855000Y-106045000D03*
X107315000Y-106045000D03*
X104775000Y-106045000D03*
X102235000Y-106045000D03*
%TD*%
D13*
%TO.C,J3*%
X61595000Y-172085000D03*
D14*
X64135000Y-172085000D03*
X66675000Y-172085000D03*
X69215000Y-172085000D03*
X71755000Y-172085000D03*
X74295000Y-172085000D03*
X76835000Y-172085000D03*
X79375000Y-172085000D03*
X81915000Y-172085000D03*
X84455000Y-172085000D03*
X86995000Y-172085000D03*
X89535000Y-172085000D03*
X92075000Y-172085000D03*
X94615000Y-172085000D03*
X97155000Y-172085000D03*
X99695000Y-172085000D03*
X102235000Y-172085000D03*
X104775000Y-172085000D03*
X107315000Y-172085000D03*
X109855000Y-172085000D03*
X112395000Y-172085000D03*
X114935000Y-172085000D03*
X117475000Y-172085000D03*
X120015000Y-172085000D03*
X122555000Y-172085000D03*
X125095000Y-172085000D03*
X127635000Y-172085000D03*
X130175000Y-172085000D03*
X132715000Y-172085000D03*
X135255000Y-172085000D03*
X137795000Y-172085000D03*
X140335000Y-172085000D03*
X142875000Y-172085000D03*
X145415000Y-172085000D03*
X147955000Y-172085000D03*
X150495000Y-172085000D03*
X153035000Y-172085000D03*
%TD*%
D18*
%TO.C,SW1*%
X78820000Y-98845000D03*
X83820000Y-98845000D03*
%TD*%
D13*
%TO.C,J4*%
X67310000Y-100965000D03*
D14*
X67310000Y-98425000D03*
%TD*%
D19*
%TO.C,C7*%
X145620000Y-123190000D03*
X142670000Y-123190000D03*
%TD*%
D20*
%TO.C,TP5*%
X88900000Y-87630000D03*
%TD*%
%TO.C,TP6*%
X66040000Y-87630000D03*
%TD*%
D19*
%TO.C,C1*%
X84025000Y-102020000D03*
X81075000Y-102020000D03*
%TD*%
D21*
%TO.C,C9*%
X100790000Y-103505000D03*
X100790000Y-100555000D03*
%TD*%
D20*
%TO.C,TP4*%
X111760000Y-87630000D03*
%TD*%
%TO.C,TP8*%
X127000000Y-87630000D03*
%TD*%
D19*
%TO.C,C6*%
X121490000Y-120650000D03*
X118540000Y-120650000D03*
%TD*%
D22*
%TO.C,C2*%
X75790000Y-127635000D03*
X78740000Y-127635000D03*
%TD*%
D19*
%TO.C,C3*%
X121490000Y-123190000D03*
X118540000Y-123190000D03*
%TD*%
D21*
%TO.C,C8*%
X104140000Y-103505000D03*
X104140000Y-100555000D03*
%TD*%
D19*
%TO.C,C4*%
X145620000Y-125730000D03*
X142670000Y-125730000D03*
%TD*%
D20*
%TO.C,TP3*%
X134620000Y-87630000D03*
%TD*%
D22*
%TO.C,C5*%
X75790000Y-125095000D03*
X78740000Y-125095000D03*
%TD*%
D20*
%TO.C,TP7*%
X149860000Y-87630000D03*
%TD*%
%TO.C,TP9*%
X104140000Y-87630000D03*
%TD*%
%TO.C,TP10*%
X81280000Y-87630000D03*
%TD*%
M02*
