%TF.GenerationSoftware,KiCad,Pcbnew,9.0.6+1*%
%TF.CreationDate,2025-12-13T21:20:49-08:00*%
%TF.ProjectId,6502,36353032-2e6b-4696-9361-645f70636258,rev?*%
%TF.SameCoordinates,Original*%
%TF.FileFunction,Soldermask,Top*%
%TF.FilePolarity,Negative*%
%FSLAX46Y46*%
G04 Gerber Fmt 4.6, Leading zero omitted, Abs format (unit mm)*
G04 Created by KiCad (PCBNEW 9.0.6+1) date 2025-12-13 21:20:49*
%MOMM*%
%LPD*%
G01*
G04 APERTURE LIST*
G04 Aperture macros list*
%AMRoundRect*
0 Rectangle with rounded corners*
0 $1 Rounding radius*
0 $2 $3 $4 $5 $6 $7 $8 $9 X,Y pos of 4 corners*
0 Add a 4 corners polygon primitive as box body*
4,1,4,$2,$3,$4,$5,$6,$7,$8,$9,$2,$3,0*
0 Add four circle primitives for the rounded corners*
1,1,$1+$1,$2,$3*
1,1,$1+$1,$4,$5*
1,1,$1+$1,$6,$7*
1,1,$1+$1,$8,$9*
0 Add four rect primitives between the rounded corners*
20,1,$1+$1,$2,$3,$4,$5,0*
20,1,$1+$1,$4,$5,$6,$7,0*
20,1,$1+$1,$6,$7,$8,$9,0*
20,1,$1+$1,$8,$9,$2,$3,0*%
%AMFreePoly0*
4,1,23,0.500000,-0.750000,0.000000,-0.750000,0.000000,-0.745722,-0.065263,-0.745722,-0.191342,-0.711940,-0.304381,-0.646677,-0.396677,-0.554381,-0.461940,-0.441342,-0.495722,-0.315263,-0.495722,-0.250000,-0.500000,-0.250000,-0.500000,0.250000,-0.495722,0.250000,-0.495722,0.315263,-0.461940,0.441342,-0.396677,0.554381,-0.304381,0.646677,-0.191342,0.711940,-0.065263,0.745722,0.000000,0.745722,
0.000000,0.750000,0.500000,0.750000,0.500000,-0.750000,0.500000,-0.750000,$1*%
%AMFreePoly1*
4,1,23,0.000000,0.745722,0.065263,0.745722,0.191342,0.711940,0.304381,0.646677,0.396677,0.554381,0.461940,0.441342,0.495722,0.315263,0.495722,0.250000,0.500000,0.250000,0.500000,-0.250000,0.495722,-0.250000,0.495722,-0.315263,0.461940,-0.441342,0.396677,-0.554381,0.304381,-0.646677,0.191342,-0.711940,0.065263,-0.745722,0.000000,-0.745722,0.000000,-0.750000,-0.500000,-0.750000,
-0.500000,0.750000,0.000000,0.750000,0.000000,0.745722,0.000000,0.745722,$1*%
G04 Aperture macros list end*
%ADD10RoundRect,0.250000X0.550000X-0.550000X0.550000X0.550000X-0.550000X0.550000X-0.550000X-0.550000X0*%
%ADD11C,1.600000*%
%ADD12RoundRect,0.250000X0.312500X0.625000X-0.312500X0.625000X-0.312500X-0.625000X0.312500X-0.625000X0*%
%ADD13C,1.400000*%
%ADD14R,1.700000X1.700000*%
%ADD15C,1.700000*%
%ADD16RoundRect,0.250000X-0.550000X-0.550000X0.550000X-0.550000X0.550000X0.550000X-0.550000X0.550000X0*%
%ADD17R,2.000000X1.440000*%
%ADD18O,2.000000X1.440000*%
%ADD19RoundRect,0.250000X-0.312500X-0.625000X0.312500X-0.625000X0.312500X0.625000X-0.312500X0.625000X0*%
%ADD20FreePoly0,0.000000*%
%ADD21FreePoly1,0.000000*%
%ADD22C,2.000000*%
G04 APERTURE END LIST*
%TO.C,JP5*%
G36*
X93195000Y-97040000D02*
G01*
X93495000Y-97040000D01*
X93495000Y-98540000D01*
X93195000Y-98540000D01*
X93195000Y-97040000D01*
G37*
%TD*%
D10*
%TO.C,REF\u002A\u002A*%
X66040000Y-91440000D03*
D11*
X68580000Y-91440000D03*
X71120000Y-91440000D03*
X73660000Y-91440000D03*
X76200000Y-91440000D03*
X78740000Y-91440000D03*
X81280000Y-91440000D03*
X81280000Y-83820000D03*
X78740000Y-83820000D03*
X76200000Y-83820000D03*
X73660000Y-83820000D03*
X71120000Y-83820000D03*
X68580000Y-83820000D03*
X66040000Y-83820000D03*
%TD*%
D12*
%TO.C,R1*%
X96712500Y-108585000D03*
X93787500Y-108585000D03*
%TD*%
D10*
%TO.C,REF\u002A\u002A*%
X134620000Y-91440000D03*
D11*
X137160000Y-91440000D03*
X139700000Y-91440000D03*
X142240000Y-91440000D03*
X144780000Y-91440000D03*
X147320000Y-91440000D03*
X149860000Y-91440000D03*
X149860000Y-83820000D03*
X147320000Y-83820000D03*
X144780000Y-83820000D03*
X142240000Y-83820000D03*
X139700000Y-83820000D03*
X137160000Y-83820000D03*
X134620000Y-83820000D03*
%TD*%
D13*
%TO.C,TP2*%
X62230000Y-157480000D03*
X64770000Y-157480000D03*
%TD*%
D10*
%TO.C,REF\u002A\u002A*%
X111760000Y-91440000D03*
D11*
X114300000Y-91440000D03*
X116840000Y-91440000D03*
X119380000Y-91440000D03*
X121920000Y-91440000D03*
X124460000Y-91440000D03*
X127000000Y-91440000D03*
X127000000Y-83820000D03*
X124460000Y-83820000D03*
X121920000Y-83820000D03*
X119380000Y-83820000D03*
X116840000Y-83820000D03*
X114300000Y-83820000D03*
X111760000Y-83820000D03*
%TD*%
D10*
%TO.C,REF\u002A\u002A*%
X88900000Y-91440000D03*
D11*
X91440000Y-91440000D03*
X93980000Y-91440000D03*
X96520000Y-91440000D03*
X99060000Y-91440000D03*
X101600000Y-91440000D03*
X104140000Y-91440000D03*
X104140000Y-83820000D03*
X101600000Y-83820000D03*
X99060000Y-83820000D03*
X96520000Y-83820000D03*
X93980000Y-83820000D03*
X91440000Y-83820000D03*
X88900000Y-83820000D03*
%TD*%
D14*
%TO.C,JP4*%
X92075000Y-100965000D03*
D15*
X94615000Y-100965000D03*
%TD*%
D16*
%TO.C,U3*%
X108585000Y-123190000D03*
D11*
X108585000Y-125730000D03*
X108585000Y-128270000D03*
X108585000Y-130810000D03*
X108585000Y-133350000D03*
X108585000Y-135890000D03*
X108585000Y-138430000D03*
X108585000Y-140970000D03*
X108585000Y-143510000D03*
X108585000Y-146050000D03*
X108585000Y-148590000D03*
X108585000Y-151130000D03*
X108585000Y-153670000D03*
X108585000Y-156210000D03*
X123825000Y-156210000D03*
X123825000Y-153670000D03*
X123825000Y-151130000D03*
X123825000Y-148590000D03*
X123825000Y-146050000D03*
X123825000Y-143510000D03*
X123825000Y-140970000D03*
X123825000Y-138430000D03*
X123825000Y-135890000D03*
X123825000Y-133350000D03*
X123825000Y-130810000D03*
X123825000Y-128270000D03*
X123825000Y-125730000D03*
X123825000Y-123190000D03*
%TD*%
D13*
%TO.C,TP1*%
X151130000Y-101600000D03*
X148590000Y-101600000D03*
%TD*%
D17*
%TO.C,U2*%
X132715000Y-123190000D03*
D18*
X132715000Y-125730000D03*
X132715000Y-128270000D03*
X132715000Y-130810000D03*
X132715000Y-133350000D03*
X132715000Y-135890000D03*
X132715000Y-138430000D03*
X132715000Y-140970000D03*
X132715000Y-143510000D03*
X132715000Y-146050000D03*
X132715000Y-148590000D03*
X132715000Y-151130000D03*
X132715000Y-153670000D03*
X132715000Y-156210000D03*
X147955000Y-156210000D03*
X147955000Y-153670000D03*
X147955000Y-151130000D03*
X147955000Y-148590000D03*
X147955000Y-146050000D03*
X147955000Y-143510000D03*
X147955000Y-140970000D03*
X147955000Y-138430000D03*
X147955000Y-135890000D03*
X147955000Y-133350000D03*
X147955000Y-130810000D03*
X147955000Y-128270000D03*
X147955000Y-125730000D03*
X147955000Y-123190000D03*
%TD*%
D16*
%TO.C,U1*%
X73030000Y-108585000D03*
D11*
X73030000Y-111125000D03*
X73030000Y-113665000D03*
X73030000Y-116205000D03*
X73030000Y-118745000D03*
X73030000Y-121285000D03*
X73030000Y-123825000D03*
X73030000Y-126365000D03*
X73030000Y-128905000D03*
X73030000Y-131445000D03*
X73030000Y-133985000D03*
X73030000Y-136525000D03*
X73030000Y-139065000D03*
X73030000Y-141605000D03*
X73030000Y-144145000D03*
X73030000Y-146685000D03*
X73030000Y-149225000D03*
X73030000Y-151765000D03*
X73030000Y-154305000D03*
X73030000Y-156845000D03*
X88270000Y-156845000D03*
X88270000Y-154305000D03*
X88270000Y-151765000D03*
X88270000Y-149225000D03*
X88270000Y-146685000D03*
X88270000Y-144145000D03*
X88270000Y-141605000D03*
X88270000Y-139065000D03*
X88270000Y-136525000D03*
X88270000Y-133985000D03*
X88270000Y-131445000D03*
X88270000Y-128905000D03*
X88270000Y-126365000D03*
X88270000Y-123825000D03*
X88270000Y-121285000D03*
X88270000Y-118745000D03*
X88270000Y-116205000D03*
X88270000Y-113665000D03*
X88270000Y-111125000D03*
X88270000Y-108585000D03*
%TD*%
D19*
%TO.C,R5*%
X64577500Y-116205000D03*
X67502500Y-116205000D03*
%TD*%
D12*
%TO.C,R6*%
X67441000Y-121412000D03*
X64516000Y-121412000D03*
%TD*%
D10*
%TO.C,Y1*%
X102235000Y-113665000D03*
D11*
X104775000Y-113665000D03*
X107315000Y-113665000D03*
X109855000Y-113665000D03*
X112395000Y-113665000D03*
X114935000Y-113665000D03*
X117475000Y-113665000D03*
X117475000Y-106045000D03*
X114935000Y-106045000D03*
X112395000Y-106045000D03*
X109855000Y-106045000D03*
X107315000Y-106045000D03*
X104775000Y-106045000D03*
X102235000Y-106045000D03*
%TD*%
D20*
%TO.C,JP5*%
X92695000Y-97790000D03*
D21*
X93995000Y-97790000D03*
%TD*%
D14*
%TO.C,J3*%
X61595000Y-172085000D03*
D15*
X64135000Y-172085000D03*
X66675000Y-172085000D03*
X69215000Y-172085000D03*
X71755000Y-172085000D03*
X74295000Y-172085000D03*
X76835000Y-172085000D03*
X79375000Y-172085000D03*
X81915000Y-172085000D03*
X84455000Y-172085000D03*
X86995000Y-172085000D03*
X89535000Y-172085000D03*
X92075000Y-172085000D03*
X94615000Y-172085000D03*
X97155000Y-172085000D03*
X99695000Y-172085000D03*
X102235000Y-172085000D03*
X104775000Y-172085000D03*
X107315000Y-172085000D03*
X109855000Y-172085000D03*
X112395000Y-172085000D03*
X114935000Y-172085000D03*
X117475000Y-172085000D03*
X120015000Y-172085000D03*
X122555000Y-172085000D03*
X125095000Y-172085000D03*
X127635000Y-172085000D03*
X130175000Y-172085000D03*
X132715000Y-172085000D03*
X135255000Y-172085000D03*
X137795000Y-172085000D03*
X140335000Y-172085000D03*
X142875000Y-172085000D03*
X145415000Y-172085000D03*
X147955000Y-172085000D03*
X150495000Y-172085000D03*
X153035000Y-172085000D03*
%TD*%
D22*
%TO.C,SW1*%
X78820000Y-98845000D03*
X83820000Y-98845000D03*
%TD*%
D12*
%TO.C,R4*%
X96712500Y-113665000D03*
X93787500Y-113665000D03*
%TD*%
%TO.C,R3*%
X96712500Y-118745000D03*
X93787500Y-118745000D03*
%TD*%
D14*
%TO.C,J4*%
X67310000Y-100965000D03*
D15*
X67310000Y-98425000D03*
%TD*%
D19*
%TO.C,R2*%
X64577500Y-111125000D03*
X67502500Y-111125000D03*
%TD*%
M02*
