M48
; DRILL file {KiCad 9.0.6+1} date 2025-12-13T21:21:01-0800
; FORMAT={-:-/ absolute / inch / decimal}
; #@! TF.CreationDate,2025-12-13T21:21:01-08:00
; #@! TF.GenerationSoftware,Kicad,Pcbnew,9.0.6+1
; #@! TF.FileFunction,Plated,1,2,PTH
FMAT,2
INCH
; #@! TA.AperFunction,Plated,PTH,ViaDrill
T1C0.0118
; #@! TA.AperFunction,Plated,PTH,ViaDrill
T2C0.0236
; #@! TA.AperFunction,Plated,PTH,ComponentDrill
T3C0.0276
; #@! TA.AperFunction,Plated,PTH,ComponentDrill
T4C0.0315
; #@! TA.AperFunction,Plated,PTH,ComponentDrill
T5C0.0394
; #@! TA.AperFunction,Plated,PTH,ComponentDrill
T6C0.0433
%
G90
G05
T1
X3.025Y-6.3
X3.125Y-4.575
X3.125Y-6.3
X3.15Y-4.775
X3.175Y-4.875
X3.225Y-6.3
X3.325Y-6.3
X3.375Y-4.875
X3.4Y-6.3
X3.42Y-4.175
X3.525Y-6.3
X3.575Y-5.4
X3.6Y-5.6
X3.6Y-6.3
X3.625Y-5.025
X3.625Y-5.75
X3.65Y-5.125
X3.65Y-5.65
X3.65Y-5.775
X3.65Y-6.3
X3.675Y-5.225
X3.675Y-5.55
X3.7Y-5.325
X3.7Y-5.45
X3.7Y-5.5
X3.7Y-6.025
X3.725Y-5.75
X3.725Y-6.675
X3.75Y-5.15
X3.75Y-5.625
X3.775Y-5.25
X3.775Y-5.525
X3.8Y-5.05
X3.8Y-5.725
X3.825Y-5.3
X3.825Y-6.125
X3.825Y-6.675
X3.85Y-4.95
X3.85Y-6.075
X3.875Y-4.85
X3.875Y-5.875
X3.9Y-5.0
X3.9Y-5.975
X3.925Y-5.1
X3.925Y-5.825
X3.925Y-6.675
X3.95Y-5.2
X3.95Y-5.925
X3.975Y-5.275
X3.975Y-6.1
X4.0Y-5.175
X4.0Y-6.05
X4.025Y-5.375
X4.025Y-6.0
X4.025Y-6.675
X4.05Y-5.075
X4.05Y-5.95
X4.075Y-5.575
X4.075Y-5.8
X4.1Y-5.35
X4.1Y-5.425
X4.1Y-5.475
X4.1Y-5.9
X4.125Y-4.975
X4.125Y-5.85
X4.125Y-6.675
X4.15Y-5.65
X4.15Y-6.4
X4.225Y-6.675
X4.325Y-6.675
X4.4Y-5.55
X4.4Y-6.4
X4.425Y-5.45
X4.425Y-6.425
X4.425Y-6.675
X4.45Y-5.35
X4.45Y-6.45
X4.475Y-5.25
X4.475Y-6.475
X4.5Y-4.85
X4.5Y-5.15
X4.5Y-6.5
X4.525Y-5.05
X4.525Y-6.525
X4.525Y-6.675
X4.55Y-5.1
X4.55Y-6.55
X4.575Y-5.2
X4.575Y-6.525
X4.6Y-5.525
X4.6Y-6.5
X4.625Y-5.35
X4.625Y-6.475
X4.625Y-6.675
X4.65Y-5.0
X4.65Y-6.45
X4.675Y-5.05
X4.675Y-6.425
X4.7Y-6.4
X4.725Y-6.675
X4.8Y-6.35
X4.825Y-6.675
X4.875Y-6.375
X4.925Y-6.675
X4.975Y-5.45
X5.0Y-5.65
X5.025Y-6.675
X5.125Y-6.675
X5.325Y-5.85
X5.325Y-6.325
X5.425Y-5.95
X5.425Y-6.325
X5.525Y-6.05
X5.525Y-6.325
X5.625Y-6.1
X5.625Y-6.525
X5.65Y-6.025
X5.65Y-6.5
X5.7Y-5.95
X5.725Y-6.525
T2
X2.66Y-3.45
X2.975Y-6.25
X3.075Y-4.475
X3.42Y-3.45
X4.34Y-3.45
X4.775Y-6.2435
X5.23Y-3.45
X5.75Y-6.25
T3
X2.45Y-6.2
X2.55Y-6.2
X5.85Y-4.0
X5.95Y-4.0
T4
X2.6Y-3.3
X2.6Y-3.6
X2.7Y-3.3
X2.7Y-3.6
X2.8Y-3.3
X2.8Y-3.6
X2.8752Y-4.275
X2.8752Y-4.375
X2.8752Y-4.475
X2.8752Y-4.575
X2.8752Y-4.675
X2.8752Y-4.775
X2.8752Y-4.875
X2.8752Y-4.975
X2.8752Y-5.075
X2.8752Y-5.175
X2.8752Y-5.275
X2.8752Y-5.375
X2.8752Y-5.475
X2.8752Y-5.575
X2.8752Y-5.675
X2.8752Y-5.775
X2.8752Y-5.875
X2.8752Y-5.975
X2.8752Y-6.075
X2.8752Y-6.175
X2.9Y-3.3
X2.9Y-3.6
X3.0Y-3.3
X3.0Y-3.6
X3.1Y-3.3
X3.1Y-3.6
X3.2Y-3.3
X3.2Y-3.6
X3.4752Y-4.275
X3.4752Y-4.375
X3.4752Y-4.475
X3.4752Y-4.575
X3.4752Y-4.675
X3.4752Y-4.775
X3.4752Y-4.875
X3.4752Y-4.975
X3.4752Y-5.075
X3.4752Y-5.175
X3.4752Y-5.275
X3.4752Y-5.375
X3.4752Y-5.475
X3.4752Y-5.575
X3.4752Y-5.675
X3.4752Y-5.775
X3.4752Y-5.875
X3.4752Y-5.975
X3.4752Y-6.075
X3.4752Y-6.175
X3.5Y-3.3
X3.5Y-3.6
X3.6Y-3.3
X3.6Y-3.6
X3.7Y-3.3
X3.7Y-3.6
X3.8Y-3.3
X3.8Y-3.6
X3.9Y-3.3
X3.9Y-3.6
X4.0Y-3.3
X4.0Y-3.6
X4.025Y-4.175
X4.025Y-4.475
X4.1Y-3.3
X4.1Y-3.6
X4.125Y-4.175
X4.125Y-4.475
X4.225Y-4.175
X4.225Y-4.475
X4.275Y-4.85
X4.275Y-4.95
X4.275Y-5.05
X4.275Y-5.15
X4.275Y-5.25
X4.275Y-5.35
X4.275Y-5.45
X4.275Y-5.55
X4.275Y-5.65
X4.275Y-5.75
X4.275Y-5.85
X4.275Y-5.95
X4.275Y-6.05
X4.275Y-6.15
X4.325Y-4.175
X4.325Y-4.475
X4.4Y-3.3
X4.4Y-3.6
X4.425Y-4.175
X4.425Y-4.475
X4.5Y-3.3
X4.5Y-3.6
X4.525Y-4.175
X4.525Y-4.475
X4.6Y-3.3
X4.6Y-3.6
X4.625Y-4.175
X4.625Y-4.475
X4.7Y-3.3
X4.7Y-3.6
X4.8Y-3.3
X4.8Y-3.6
X4.875Y-4.85
X4.875Y-4.95
X4.875Y-5.05
X4.875Y-5.15
X4.875Y-5.25
X4.875Y-5.35
X4.875Y-5.45
X4.875Y-5.55
X4.875Y-5.65
X4.875Y-5.75
X4.875Y-5.85
X4.875Y-5.95
X4.875Y-6.05
X4.875Y-6.15
X4.9Y-3.3
X4.9Y-3.6
X5.0Y-3.3
X5.0Y-3.6
X5.3Y-3.3
X5.3Y-3.6
X5.4Y-3.3
X5.4Y-3.6
X5.5Y-3.3
X5.5Y-3.6
X5.6Y-3.3
X5.6Y-3.6
X5.7Y-3.3
X5.7Y-3.6
X5.8Y-3.3
X5.8Y-3.6
X5.9Y-3.3
X5.9Y-3.6
T5
X2.425Y-6.775
X2.525Y-6.775
X2.625Y-6.775
X2.65Y-3.875
X2.65Y-3.975
X2.725Y-6.775
X2.825Y-6.775
X2.925Y-6.775
X3.025Y-6.775
X3.125Y-6.775
X3.225Y-6.775
X3.325Y-6.775
X3.425Y-6.775
X3.525Y-6.775
X3.625Y-3.975
X3.625Y-6.775
X3.725Y-3.975
X3.725Y-6.775
X3.825Y-6.775
X3.925Y-6.775
X4.025Y-6.775
X4.125Y-6.775
X4.225Y-6.775
X4.325Y-6.775
X4.425Y-6.775
X4.525Y-6.775
X4.625Y-6.775
X4.725Y-6.775
X4.825Y-6.775
X4.925Y-6.775
X5.025Y-6.775
X5.125Y-6.775
X5.225Y-4.85
X5.225Y-4.95
X5.225Y-5.05
X5.225Y-5.15
X5.225Y-5.25
X5.225Y-5.35
X5.225Y-5.45
X5.225Y-5.55
X5.225Y-5.65
X5.225Y-5.75
X5.225Y-5.85
X5.225Y-5.95
X5.225Y-6.05
X5.225Y-6.15
X5.225Y-6.775
X5.325Y-6.775
X5.425Y-6.775
X5.525Y-6.775
X5.625Y-6.775
X5.725Y-6.775
X5.825Y-4.85
X5.825Y-4.95
X5.825Y-5.05
X5.825Y-5.15
X5.825Y-5.25
X5.825Y-5.35
X5.825Y-5.45
X5.825Y-5.55
X5.825Y-5.65
X5.825Y-5.75
X5.825Y-5.85
X5.825Y-5.95
X5.825Y-6.05
X5.825Y-6.15
X5.825Y-6.775
X5.925Y-6.775
X6.025Y-6.775
T6
X3.1031Y-3.8915
X3.3Y-3.8915
M30
